<svg xmlns="http://www.w3.org/2000/svg" xmlns:xlink="http://www.w3.org/1999/xlink" viewBox="0 0 670.15 245.44"><defs><style>.cls-1{fill:url(#linear-gradient);}.cls-2{fill:url(#linear-gradient-2);}.cls-3{fill:url(#linear-gradient-3);}.cls-4{fill:url(#linear-gradient-4);}.cls-5{fill:url(#linear-gradient-5);}.cls-6{fill:url(#linear-gradient-6);}.cls-7{fill:#fff;}</style><linearGradient id="linear-gradient" x1="140.72" x2="140.72" y2="68.41" gradientUnits="userSpaceOnUse"><stop offset="0" stop-color="#a36fad"/><stop offset="0.01" stop-color="#a073b0"/><stop offset="0.07" stop-color="#8b91c7"/><stop offset="0.14" stop-color="#7aa9d9"/><stop offset="0.22" stop-color="#6ebae6"/><stop offset="0.3" stop-color="#67c4ee"/><stop offset="0.4" stop-color="#65c7f0"/><stop offset="1" stop-color="#a36fad"/></linearGradient><linearGradient id="linear-gradient-2" x1="140.74" y1="5.34" x2="140.74" y2="63.38" xlink:href="#linear-gradient"/><linearGradient id="linear-gradient-3" x1="149.05" y1="165.25" x2="270.32" y2="165.25" gradientUnits="userSpaceOnUse"><stop offset="0" stop-color="#a36fad"/><stop offset="0.6" stop-color="#65c7f0"/><stop offset="0.7" stop-color="#67c4ee"/><stop offset="0.78" stop-color="#6ebae6"/><stop offset="0.86" stop-color="#7aa9d9"/><stop offset="0.93" stop-color="#8b91c7"/><stop offset="0.99" stop-color="#a073b0"/><stop offset="1" stop-color="#a36fad"/></linearGradient><linearGradient id="linear-gradient-4" x1="154.12" y1="163.46" x2="263.53" y2="163.46" xlink:href="#linear-gradient-3"/><linearGradient id="linear-gradient-5" x1="11.2" y1="165.39" x2="132.37" y2="165.39" xlink:href="#linear-gradient"/><linearGradient id="linear-gradient-6" x1="17.64" y1="163.31" x2="127.33" y2="163.31" xlink:href="#linear-gradient"/></defs><g id="Layer_2" data-name="Layer 2"><g id="LOGO_ORGINAL" data-name="LOGO ORGINAL"><path class="cls-1" d="M280,35.51c-3.62-.14-7.25-.17-10.87-.48-8.9-.76-17.84-1.34-26.69-2.55-8-1.1-15.89-2.8-23.8-4.43C213,26.9,207.4,25.7,202,24q-14.34-4.43-28.49-9.51A247.19,247.19,0,0,1,142.11.36a2.69,2.69,0,0,0-2.85.11,269.7,269.7,0,0,1-36.65,16.12c-8.57,3-17.29,5.63-26,8.2-4.92,1.45-9.92,2.64-14.94,3.73-4.78,1-12.66,2.4-17.5,3-9.22,1.19-18.44,2.3-27.68,3.24-4.93.5-9.91.53-14.87.71C.45,35.54-.1,36,0,37.14a13.78,13.78,0,0,0,.16,1.44c.7,3.92,1.38,7.84,2.14,11.74,1.05,5.33,2.19,10.64,3.25,16,.32,1.57,1.07,2.13,2.77,2.13q66.1-.07,132.21,0H271.46c3.87,0,3.87,0,4.83-3.71.19-.73.35-1.46.51-2.2.94-4.53,2-9,2.8-13.59.7-3.81,1.22-7.66,1.8-11.49C281.56,36.28,281.31,35.56,280,35.51Zm-1.47,4.41c-.41,2.8-.83,5.7-1.35,8.5-.6,3.22-1.3,6.49-2,9.66-.28,1.29-.55,2.58-.82,3.88-.15.72-.32,1.42-.49,2.08s-.35,1.37-.49,1.79c-.45,0-1.21,0-1.9,0H101.54c-34.54,0-63.62,0-93.21,0H8.06a.3.3,0,0,1,0-.1c-.49-2.41-1-4.86-1.48-7.23C6,55.7,5.36,52.74,4.79,49.83S3.69,44,3.18,41.13c-.17-1-.35-2-.53-3l0-.16,2.72-.09c3.73-.1,7.58-.22,11.39-.6,8.4-.86,17.48-1.92,27.75-3.25,4.93-.64,12.88-2,17.71-3.07,6-1.29,10.76-2.49,15.12-3.77,8-2.34,17.18-5.1,26.13-8.24a269.63,269.63,0,0,0,37-16.27,3.07,3.07,0,0,1,.38-.17l.13.06a246.64,246.64,0,0,0,31.68,14.29c9.36,3.37,19,6.59,28.6,9.55,5.45,1.69,11.09,2.9,16.87,4.09l2.42.5c7,1.46,14.29,3,21.54,4,6.92,1,14,1.52,20.8,2.07l6,.49c2.66.23,5.34.31,7.93.39l2,.06C278.67,38.62,278.58,39.27,278.48,39.92Z"/><path class="cls-2" d="M262.65,39.54c-6.86-.55-13.95-1.12-20.94-2.08-7.34-1-14.64-2.53-21.71-4l-2.42-.5c-5.84-1.21-11.55-2.43-17.1-4.14-9.65-3-19.31-6.21-28.71-9.6a245.27,245.27,0,0,1-31-13.89,272.39,272.39,0,0,1-36.52,16C95.27,24.49,86,27.26,78,29.61c-4.42,1.3-9.28,2.51-15.29,3.82-4.9,1.06-12.94,2.45-17.93,3.1C34.51,37.87,25.41,38.93,17,39.79c-3.84.39-7.67.5-11.38.61l0,.29c.51,2.85,1,5.79,1.59,8.66S8.43,55.19,9,58.05c.36,1.75.73,3.54,1.09,5.33,29,0,57.56,0,91.41,0H271.44c.15-.6.3-1.24.44-1.91.27-1.29.55-2.59.82-3.88.67-3.15,1.37-6.41,2-9.59.46-2.48.84-5.06,1.21-7.57-2.36-.07-4.78-.16-7.21-.37Z"/><path class="cls-3" d="M268.8,85.33q-55.59,0-111.17,0h-7.12c-1,0-1.43.3-1.42,1.43.07,7.33.07,14.66.08,22v56.46q0,29.68,0,59.37c0,6.36-.09,12.72-.11,19.08a2.32,2.32,0,0,0,.43,1.44c.15.16.93-.05,1.29-.29,3.4-2.27,6.88-4.44,10.13-6.91,6.39-4.85,12.72-9.78,18.93-14.85a253.38,253.38,0,0,0,23.09-21.71,61.35,61.35,0,0,1,12.47-68.77h0l23.08,23.09c2.33-4,4.79-7.94,7-12a276.45,276.45,0,0,0,16-33.17c3.05-7.75,5.68-15.67,8.57-23.48C270.65,85.52,270.2,85.33,268.8,85.33Zm-4.38,10c-1.67,4.7-3.4,9.56-5.24,14.25a273.49,273.49,0,0,1-15.86,32.87c-1.34,2.4-2.79,4.82-4.19,7.16l-1.18,2L215.39,129l-1.78,1.78a64.16,64.16,0,0,0-13.67,70,245.7,245.7,0,0,1-21.7,20.28c-5.52,4.52-11.51,9.22-18.86,14.8-2.37,1.8-4.94,3.49-7.43,5.12l-.37.25c0-2.14,0-4.27,0-6.36,0-3.38,0-6.88,0-10.33,0-14.25,0-28.75,0-42.77V108.76c0-6.85,0-13.92-.07-20.91h115.5C266.19,90.35,265.29,92.89,264.42,95.35Z"/><path class="cls-4" d="M175.7,90.35H154.14c.05,6.18.05,12.38.05,18.41q0,20.2,0,40.4V181.8c0,14,0,28.53,0,42.8,0,3.45,0,7-.06,10.34,0,.54,0,1.09,0,1.64,1.28-.87,2.53-1.75,3.74-2.67,7.32-5.56,13.29-10.25,18.79-14.74A239.61,239.61,0,0,0,197,200.26,66.7,66.7,0,0,1,211.83,129l3.56-3.55,22.06,22.06c1.24-2.07,2.5-4.2,3.67-6.3a268.52,268.52,0,0,0,15.72-32.56c1.83-4.65,3.55-9.49,5.21-14.17l1.48-4.16H175.7Z"/><path class="cls-5" d="M132.36,236.66q0-74.08,0-148.16c0-3.12.55-3.14-3.18-3.14l-108.89,0c-2.59,0-5.17,0-7.76,0-1.16,0-1.56.39-1.16,1.59.91,2.7,1.54,5.51,2.6,8.15,3.67,9.14,7.32,18.29,11.25,27.31A253.68,253.68,0,0,0,42.69,155a2.4,2.4,0,0,0,.44.55l22.92-22.93h0a61.37,61.37,0,0,1,12.51,68.7c4.59,4.61,9.08,9.33,13.9,13.69,6,5.41,12.15,10.65,18.53,15.6s13.25,9.6,19.9,14.36a7,7,0,0,0,1.34.51c.06-.85.14-1.42.14-2C132.38,241.18,132.36,238.92,132.36,236.66Zm-5.81,2.13c-4.66-3.28-9.48-6.67-14-10.2-6-4.69-12-9.75-18.38-15.49-3.67-3.31-7.23-6.92-10.67-10.42l-1.94-2a64.18,64.18,0,0,0-13.71-69.91L66.05,129,43.53,151.55a244.74,244.74,0,0,1-16-30.16c-3.74-8.6-7.3-17.46-10.73-26l-.49-1.2c-.59-1.5-1.05-3.06-1.53-4.72-.15-.52-.31-1-.47-1.57h6q54.45,0,108.89,0h.67v.62c0,37.86,0,76.36,0,113.59v34.57c0,1,0,1.93,0,2.9,0,.51,0,1,0,1.55Z"/><path class="cls-6" d="M127.32,90.39l-107,0H17.64c.3,1,.62,1.94,1,2.84l.48,1.2c3.43,8.56,7,17.41,10.71,26A233.69,233.69,0,0,0,44,147.51l22-22L69.61,129a66.73,66.73,0,0,1,14.88,71.1l.78.79c3.42,3.47,7,7.06,10.56,10.32,6.3,5.69,12.27,10.72,18.24,15.36,4.28,3.33,8.83,6.55,13.26,9.66V202.07C127.33,165.46,127.33,127.64,127.32,90.39Z"/><path class="cls-7" d="M397.75,180.29,392,160.18h-.17c.26,3.43.4,6.09.4,8v12.12h-6.69V152.37h10.05l5.82,19.83h.16l5.71-19.83h10.06v27.92h-6.93V168.05c0-.64,0-1.34,0-2.12s.1-2.68.26-5.71h-.18l-5.63,20.07Z"/><path class="cls-7" d="M440.53,180.29l-1.38-5.23h-9.07l-1.41,5.23h-8.29l9.11-28h10.07l9.22,28Zm-2.94-11.42-1.2-4.58c-.28-1-.62-2.34-1-3.95s-.66-2.78-.79-3.48c-.11.65-.34,1.72-.68,3.21s-1.08,4.42-2.24,8.8Z"/><path d="M442.43,177.84l-1.38-5.24H428.2l-1.41,5.24h-3l7.52-23.12h6.5l7.6,23.12Zm-10.28-21.41c-.11.61-.33,1.65-.65,3.1s-1.08,4.37-2.23,8.71l-.81,3.09h12.32l-2-7.69c-.26-.95-.59-2.23-1-3.9s-.65-2.71-.76-3.32Z"/><path class="cls-7" d="M477,180.29h-8.73l-5.44-8.72-5.39,8.72h-8.53L458.12,166l-8.71-13.64h8.37l5,8.63,4.85-8.63h8.61l-8.84,14.23Z"/><polygon points="469.59 177.84 462.77 166.9 456.02 177.84 453.38 177.84 461.04 166.02 453.9 154.83 456.36 154.83 462.86 165.95 469.11 154.83 471.86 154.83 464.5 166.68 472.25 177.84 469.59 177.84"/><path class="cls-7" d="M510.51,161.25a9.35,9.35,0,0,1-2.76,7.23Q505,171,499.91,171h-2.12v9.26h-7.55V152.37h9.67q5.28,0,7.94,2.31A8.24,8.24,0,0,1,510.51,161.25Zm-12.72,3.63h1.37a3.75,3.75,0,0,0,2.7-.95,3.44,3.44,0,0,0,1-2.64c0-1.88-1-2.83-3.13-2.83h-1.95Z"/><path d="M492.7,177.84v-23h7.21c2.9,0,5,.57,6.33,1.71a5.85,5.85,0,0,1,1.81,4.71,7,7,0,0,1-2,5.43c-1.36,1.25-3.44,1.89-6.17,1.89h-4.58v9.27Zm2.63-10.5h3.83a6.18,6.18,0,0,0,4.4-1.63,5.88,5.88,0,0,0,1.77-4.42c0-3.26-2.15-5.28-5.59-5.28h-4.41Z"/><path class="cls-7" d="M515,180.29V152.37h7.54V174.2h10.75v6.09Z"/><polygon points="517.42 177.84 517.42 154.83 520.04 154.83 520.04 176.66 530.8 176.66 530.8 177.84 517.42 177.84"/><path class="cls-7" d="M561.46,152.37v16.81q0,5.48-3.1,8.49c-2.07,2-5.05,3-9,3s-6.73-1-8.78-2.93-3.06-4.74-3.06-8.4v-17h7.58v16.39a6.72,6.72,0,0,0,1.11,4.3,4.8,4.8,0,0,0,6.62,0,7.17,7.17,0,0,0,1-4.35V152.37Z"/><path d="M549.41,178.22c-3.18,0-5.49-.74-7.08-2.25s-2.3-3.64-2.3-6.62V154.83h2.66v13.93a8.87,8.87,0,0,0,1.68,5.86,7.19,7.19,0,0,0,10.44,0h0a9.31,9.31,0,0,0,1.56-5.86V154.83H559v14.35c0,3-.77,5.19-2.35,6.72S552.63,178.22,549.41,178.22Z"/><path class="cls-7" d="M585.58,171.81a8.34,8.34,0,0,1-1.31,4.62,8.72,8.72,0,0,1-3.8,3.13,14.2,14.2,0,0,1-5.83,1.12,23.65,23.65,0,0,1-4.68-.39,17.75,17.75,0,0,1-3.93-1.37V172.2a22.76,22.76,0,0,0,4.48,1.72,16.54,16.54,0,0,0,4.28.63,4.18,4.18,0,0,0,2.47-.59,1.8,1.8,0,0,0,.78-1.5,1.59,1.59,0,0,0-.32-1,3.5,3.5,0,0,0-1-.87c-.46-.29-1.7-.89-3.71-1.79a17.82,17.82,0,0,1-4.1-2.41,7.6,7.6,0,0,1-2-2.67,9.08,9.08,0,0,1-.65-3.58,7.13,7.13,0,0,1,2.81-6q2.81-2.16,7.71-2.16a21.58,21.58,0,0,1,8.84,2l-2.31,5.82a16.82,16.82,0,0,0-6.76-1.79,3.57,3.57,0,0,0-2.14.51,1.59,1.59,0,0,0-.67,1.28,1.86,1.86,0,0,0,.85,1.47,33.53,33.53,0,0,0,4.62,2.37,12.84,12.84,0,0,1,5,3.48A7.57,7.57,0,0,1,585.58,171.81Z"/><path d="M574.64,178.22a21.77,21.77,0,0,1-4.18-.34,13.55,13.55,0,0,1-2-.58v-1.42c.46.16.93.29,1.39.42a19,19,0,0,0,4.91.7,6.46,6.46,0,0,0,3.93-1.06,4.24,4.24,0,0,0,1.78-3.48,4.14,4.14,0,0,0-.79-2.45,6.08,6.08,0,0,0-1.68-1.49,33.45,33.45,0,0,0-4-2,15.63,15.63,0,0,1-3.52-2,5,5,0,0,1-1.36-1.79,6.54,6.54,0,0,1-.45-2.59,4.72,4.72,0,0,1,1.84-4.06,10.08,10.08,0,0,1,6.22-1.65,18.36,18.36,0,0,1,5.64.94l-.48,1.22a16.13,16.13,0,0,0-5.39-1,5.79,5.79,0,0,0-3.64,1,4,4,0,0,0-1.62,3.23,4.3,4.3,0,0,0,1.81,3.43,29.6,29.6,0,0,0,5.09,2.65h0a10.16,10.16,0,0,1,4.05,2.72,5.14,5.14,0,0,1,.92,3.21,5.75,5.75,0,0,1-.92,3.27,6.19,6.19,0,0,1-2.76,2.24A11.83,11.83,0,0,1,574.64,178.22Z"/><path d="M412.91,177.84v-9.79c0-.7,0-1.37,0-2.05v0c0-.7.09-2.43.25-5.63l.13-2.59H408.7l-5.63,20.08h-3.46l-5.71-20.12h-4.69l.21,2.65c.26,3.35.39,6,.39,7.8v9.67H388v-23h5.75l5.82,19.82h3.85l5.71-19.82h5.75v23Z"/><path class="cls-7" d="M352.23,132.06H316.88v-4l8-1.65c1.56-.29,2-.88,2-2.23V70.3h-5.83c-5.14,0-7.18.77-9.12,6l-2.82,6.8h-5.34l.48-17h60.5l.59,17H360l-2.81-6.8c-2-5.25-4-6-9.13-6h-5.73v53.9c0,1.35.49,1.94,2,2.23l7.87,1.55Z"/><path class="cls-7" d="M372.34,128l7.19-1.55c1.46-.29,1.94-.88,1.94-2.23V73.89c0-1.26-.48-1.84-1.94-2.14l-7.19-1.55V66.12h33.51V70.2l-7.09,1.55c-1.56.3-1.85.88-1.85,2.14V124.2c0,1.35.29,1.94,1.85,2.23l7.09,1.55v4.08H372.34Z"/><path class="cls-7" d="M461.4,132.06H426.06v-4l8-1.65c1.55-.29,2-.88,2-2.23V70.3h-5.83c-5.15,0-7.19.77-9.13,6l-2.81,6.8H413l.48-17h60.5l.59,17h-5.35l-2.81-6.8c-2-5.25-4-6-9.13-6H451.5v53.9c0,1.35.48,1.94,2,2.23L461.4,128Z"/><path class="cls-7" d="M498.42,132.06H474v-4l7.09-2a4.66,4.66,0,0,0,3.2-3.11l16.22-44.48,4.18-12.81h8.54l20.88,58.65a2.92,2.92,0,0,0,2.52,2.24l6,1.55v4H509.1V128l7-1.45c1.45-.3,1.65-1.17,1.16-2.73l-3.69-10.87H492.89l-3.21,9.42c-.58,1.65-.87,3.11,1.26,3.69l7.48,2Zm9.32-36.61L504,82.63h-.58l-8.83,25.64H512Z"/><path class="cls-7" d="M546.51,128.08l6.6-1.85c1.84-.58,2.53-1.45,2.53-3.4V74.47c0-1.55-.49-2.33-2.34-2.81l-6.79-1.56v-4H570l22.82,32.34,7.57,11.85H601v-35c0-1.95-.68-2.92-2.63-3.4l-6.6-1.75V66.12h23v4L608.17,72c-1.94.58-2.43,1.45-2.43,3.4v57h-7.86L568.65,91.47l-7.77-12.72h-.58v44.08c0,2,.67,2.92,2.62,3.4l6.6,1.75v4.08h-23Z"/><path class="cls-7" d="M646.35,133.42c-7.28,0-13-2-17.18-5.73l-2.34,5.54h-3.69l.2-25.16h4.46l2.43,7c3,8.83,7.77,13.88,16.32,13.88,7.67,0,12.33-3.49,12.33-9.9,0-7.68-6.89-10.2-15.44-13.21-12.33-4.18-19.23-10.39-19.23-21.56,0-12.43,10.69-19.52,22.63-19.52,6.12,0,11.17,1.56,15,4.66L664,65.05h3.49l-.19,23.7h-4.18l-2.33-7.19c-2.62-8-6.11-12.33-13.69-12.33s-11.65,4.08-11.65,9.52c0,7.18,7.28,9.9,15.44,12.91,11.17,4.08,19.23,9.13,19.23,21.46C670.15,126.62,659.17,133.42,646.35,133.42Z"/></g></g></svg>