<?xml version="1.0" encoding="UTF-8" standalone="no"?>
<!-- Created with Inkscape (http://www.inkscape.org/) -->

<svg
   width="64.771004mm"
   height="18.565001mm"
   viewBox="0 0 64.771004 18.565001"
   version="1.1"
   id="svg2426"
   inkscape:version="1.1.2 (0a00cf5339, 2022-02-04, custom)"
   sodipodi:docname="logo-text-hr.svg"
   xmlns:inkscape="http://www.inkscape.org/namespaces/inkscape"
   xmlns:sodipodi="http://sodipodi.sourceforge.net/DTD/sodipodi-0.dtd"
   xmlns="http://www.w3.org/2000/svg"
   xmlns:svg="http://www.w3.org/2000/svg">
  <sodipodi:namedview
     id="namedview2428"
     pagecolor="#ffffff"
     bordercolor="#666666"
     borderopacity="1.0"
     inkscape:pageshadow="2"
     inkscape:pageopacity="0.0"
     inkscape:pagecheckerboard="0"
     inkscape:document-units="mm"
     showgrid="false"
     inkscape:zoom="5.200687"
     inkscape:cx="26.534956"
     inkscape:cy="39.033305"
     inkscape:window-width="1366"
     inkscape:window-height="703"
     inkscape:window-x="0"
     inkscape:window-y="0"
     inkscape:window-maximized="1"
     inkscape:current-layer="layer1" />
  <defs
     id="defs2423">
    <clipPath
       clipPathUnits="userSpaceOnUse"
       id="clipPath36">
      <path
         d="M 0,5756 H 1918 V 0 H 0 Z"
         id="path34" />
    </clipPath>
  </defs>
  <g
     inkscape:label="Layer 1"
     inkscape:groupmode="layer"
     id="layer1">
    <g
       id="g30"
       transform="matrix(0.35277777,0,0,-0.35277777,-88.786721,2024.2195)">
      <g
         id="g32"
         clip-path="url(#clipPath36)">
        <g
           id="g38"
           transform="translate(322.026,5693.1304)">
          <path
             d="M 0,0 C -0.316,0 -0.577,0.022 -0.784,0.076 V 2.93 c 0.163,0.044 0.479,0.076 0.893,0.076 1.046,0 1.732,-0.468 1.732,-1.438 C 1.841,0.556 1.144,0 0,0 m 2.146,3.148 c -0.435,0.392 -1.122,0.61 -2.059,0.61 -0.762,0 -1.362,-0.066 -1.819,-0.142 v -7.254 h 0.948 v 2.941 c 0.217,-0.054 0.479,-0.065 0.762,-0.065 0.926,0 1.743,0.272 2.245,0.805 0.37,0.382 0.566,0.905 0.566,1.569 0,0.654 -0.24,1.187 -0.643,1.536"
             style="fill:#253d96;fill-opacity:1;fill-rule:nonzero;stroke:none"
             id="path40" />
        </g>
        <g
           id="g42"
           transform="translate(330.8073,5693.7622)">
          <path
             d="M 0,0 H -3.552 V 3.072 H -4.499 V -4.27 h 0.947 v 3.442 H 0 V -4.27 H 0.959 V 3.072 H 0 Z"
             style="fill:#253d96;fill-opacity:1;fill-rule:nonzero;stroke:none"
             id="path44" />
        </g>
        <g
           id="g46"
           transform="translate(335.0128,5692.542)">
          <path
             d="M 0,0 0.719,2.124 C 0.861,2.571 0.98,3.018 1.089,3.453 H 1.111 C 1.22,3.028 1.329,2.593 1.493,2.113 L 2.212,0 Z M 0.556,4.292 -1.939,-3.05 h 0.98 l 0.763,2.31 H 2.408 L 3.192,-3.05 H 4.205 L 1.7,4.292 Z"
             style="fill:#253d96;fill-opacity:1;fill-rule:nonzero;stroke:none"
             id="path48" />
        </g>
        <g
           id="g50"
           transform="translate(342.4323,5693.3916)">
          <path
             d="m 0,0 h -0.97 v 2.68 c 0.153,0.043 0.48,0.087 0.937,0.087 C 0.97,2.756 1.656,2.342 1.656,1.395 1.656,0.556 1.013,0 0,0 m 1.22,-0.403 v 0.033 c 0.774,0.262 1.384,0.904 1.384,1.873 0,0.567 -0.207,1.068 -0.578,1.394 -0.457,0.415 -1.111,0.6 -2.124,0.6 -0.654,0 -1.34,-0.055 -1.819,-0.153 v -7.243 h 0.947 v 3.18 h 0.894 c 0.86,-0.032 1.253,-0.413 1.471,-1.427 0.207,-0.915 0.37,-1.546 0.49,-1.753 h 0.98 C 2.713,-3.616 2.538,-2.908 2.299,-1.884 2.125,-1.122 1.787,-0.599 1.22,-0.403"
             style="fill:#253d96;fill-opacity:1;fill-rule:nonzero;stroke:none"
             id="path52" />
        </g>
        <g
           id="g54"
           transform="translate(352.2267,5696.834)">
          <path
             d="m 0,0 -1.307,-3.551 c -0.327,-0.926 -0.589,-1.732 -0.774,-2.472 h -0.033 c -0.185,0.762 -0.435,1.568 -0.74,2.472 L -4.107,0 h -1.21 l -0.512,-7.342 h 0.905 l 0.196,3.148 c 0.065,1.1 0.12,2.331 0.141,3.246 h 0.022 c 0.207,-0.871 0.501,-1.819 0.85,-2.854 l 1.187,-3.496 h 0.72 l 1.296,3.562 c 0.37,1.012 0.675,1.927 0.926,2.788 H 0.447 C 0.436,-1.863 0.501,-3.094 0.556,-4.118 L 0.741,-7.342 H 1.667 L 1.209,0 Z"
             style="fill:#253d96;fill-opacity:1;fill-rule:nonzero;stroke:none"
             id="path56" />
        </g>
        <g
           id="g58"
           transform="translate(356.8462,5692.542)">
          <path
             d="m 0,0 0.719,2.124 c 0.142,0.447 0.262,0.894 0.37,1.329 H 1.111 C 1.22,3.028 1.329,2.593 1.493,2.113 L 2.212,0 Z M 0.556,4.292 -1.939,-3.05 h 0.98 l 0.763,2.31 H 2.408 L 3.192,-3.05 H 4.205 L 1.7,4.292 Z"
             style="fill:#253d96;fill-opacity:1;fill-rule:nonzero;stroke:none"
             id="path60" />
        </g>
        <g
           id="g62"
           transform="translate(365.6167,5696.1582)">
          <path
             d="M 0,0 C 0.61,0 1.122,-0.13 1.482,-0.305 L 1.71,0.469 C 1.46,0.6 0.882,0.795 -0.033,0.795 c -2.277,0 -3.835,-1.557 -3.835,-3.856 0,-2.407 1.558,-3.713 3.628,-3.713 0.894,0 1.591,0.173 1.94,0.348 L 1.503,-5.675 C 1.122,-5.86 0.534,-5.979 -0.044,-5.979 c -1.786,0 -2.821,1.154 -2.821,2.951 C -2.865,-1.1 -1.721,0 0,0"
             style="fill:#253d96;fill-opacity:1;fill-rule:nonzero;stroke:none"
             id="path64" />
        </g>
        <g
           id="g66"
           transform="translate(369.6696,5692.9346)">
          <path
             d="M 0,0 H 2.854 V 0.784 H 0 v 2.32 h 3.018 v 0.795 h -3.966 v -7.341 h 4.129 v 0.795 H 0 Z"
             style="fill:#253d96;fill-opacity:1;fill-rule:nonzero;stroke:none"
             id="path68" />
        </g>
        <g
           id="g70"
           transform="translate(378.7449,5692.4878)">
          <path
             d="m 0,0 c 0,-1.623 -0.697,-2.342 -1.787,-2.342 -0.98,0 -1.71,0.697 -1.71,2.342 V 4.346 H -4.456 V 0.022 c 0,-2.277 1.133,-3.137 2.637,-3.137 1.59,0 2.778,0.926 2.778,3.18 V 4.346 H 0 Z"
             style="fill:#253d96;fill-opacity:1;fill-rule:nonzero;stroke:none"
             id="path72" />
        </g>
        <g
           id="g74"
           transform="translate(380.7278,5696.0278)">
          <path
             d="M 0,0 H 2.233 V -6.536 H 3.192 V 0 H 5.436 V 0.806 H 0 Z"
             style="fill:#253d96;fill-opacity:1;fill-rule:nonzero;stroke:none"
             id="path76" />
        </g>
        <path
           d="m 387.199,5689.492 h 0.948 v 7.342 h -0.948 z"
           style="fill:#253d96;fill-opacity:1;fill-rule:nonzero;stroke:none"
           id="path78" />
        <g
           id="g80"
           transform="translate(393.4529,5696.1582)">
          <path
             d="M 0,0 C 0.61,0 1.122,-0.13 1.482,-0.305 L 1.71,0.469 C 1.46,0.6 0.882,0.795 -0.033,0.795 c -2.277,0 -3.835,-1.557 -3.835,-3.856 0,-2.407 1.558,-3.713 3.628,-3.713 0.894,0 1.591,0.173 1.939,0.348 L 1.503,-5.675 C 1.122,-5.86 0.534,-5.979 -0.044,-5.979 c -1.786,0 -2.821,1.154 -2.821,2.951 C -2.865,-1.1 -1.721,0 0,0"
             style="fill:#253d96;fill-opacity:1;fill-rule:nonzero;stroke:none"
             id="path82" />
        </g>
        <g
           id="g84"
           transform="translate(397.9851,5692.542)">
          <path
             d="M 0,0 0.719,2.124 C 0.861,2.571 0.98,3.018 1.089,3.453 H 1.111 C 1.22,3.028 1.329,2.593 1.493,2.113 L 2.212,0 Z M 0.556,4.292 -1.939,-3.05 h 0.98 l 0.763,2.31 H 2.408 L 3.192,-3.05 H 4.205 L 1.699,4.292 Z"
             style="fill:#253d96;fill-opacity:1;fill-rule:nonzero;stroke:none"
             id="path86" />
        </g>
        <g
           id="g88"
           transform="translate(404.4349,5696.834)">
          <path
             d="m 0,0 h -0.948 v -7.342 h 4.086 v 0.796 H 0 Z"
             style="fill:#253d96;fill-opacity:1;fill-rule:nonzero;stroke:none"
             id="path90" />
        </g>
        <g
           id="g92"
           transform="translate(411.048,5693.6533)">
          <path
             d="m 0,0 c -1.013,0.392 -1.46,0.729 -1.46,1.416 0,0.501 0.381,1.1 1.384,1.1 0.664,0 1.154,-0.218 1.394,-0.349 L 1.58,2.941 C 1.253,3.126 0.708,3.3 -0.044,3.3 c -1.427,0 -2.375,-0.849 -2.375,-1.993 0,-1.035 0.741,-1.656 1.94,-2.08 0.991,-0.381 1.383,-0.774 1.383,-1.46 0,-0.741 -0.566,-1.252 -1.536,-1.252 -0.654,0 -1.275,0.217 -1.7,0.479 l -0.239,-0.795 c 0.392,-0.262 1.166,-0.469 1.874,-0.469 1.732,0 2.571,0.98 2.571,2.113 C 1.874,-1.078 1.242,-0.479 0,0"
             style="fill:#253d96;fill-opacity:1;fill-rule:nonzero;stroke:none"
             id="path94" />
        </g>
        <g
           id="g96"
           transform="translate(311.8839,5730.2891)">
          <path
             d="m 0,0 c -0.318,-2.388 -0.77,-4.754 -1.351,-7.088 h -57.502 c -0.581,2.333 -1.033,4.7 -1.352,7.088 2.135,0.03 4.266,0.163 6.383,0.396 8.275,0.908 16.35,3.345 23.72,7.26 7.369,-3.916 15.445,-6.353 23.72,-7.26 C -4.265,0.163 -2.135,0.03 0,0"
             style="fill:#253d96;fill-opacity:1;fill-rule:nonzero;stroke:none"
             id="path98" />
        </g>
        <g
           id="g100"
           transform="translate(280.0101,5719.6582)">
          <path
             d="m 0,0 v -34.339 c -1.434,0.919 -2.82,1.889 -4.154,2.907 -3.21,2.447 -6.127,5.169 -8.74,8.114 l 0.012,0.012 c 2.47,2.47 2.815,6.358 0.809,9.218 -0.124,0.176 -0.247,0.353 -0.369,0.531 -0.622,0.91 -1.217,1.833 -1.784,2.774 l -0.153,0.153 -4.598,-4.597 c -3.007,4.756 -5.356,9.884 -7.012,15.227 z"
             style="fill:#253d96;fill-opacity:1;fill-rule:nonzero;stroke:none"
             id="path102" />
        </g>
        <g
           id="g104"
           transform="translate(309.5425,5719.6582)">
          <path
             d="m 0,0 c -1.67,-5.39 -4.046,-10.56 -7.089,-15.352 l -4.635,4.633 c -0.578,-0.961 -1.186,-1.908 -1.822,-2.838 -0.15,-0.217 -0.3,-0.434 -0.452,-0.65 -2.014,-2.855 -1.663,-6.748 0.808,-9.219 -2.588,-2.904 -5.474,-5.59 -8.646,-8.006 -1.334,-1.018 -2.718,-1.988 -4.152,-2.907 V 0 Z"
             style="fill:#253d96;fill-opacity:1;fill-rule:nonzero;stroke:none"
             id="path106" />
        </g>
        <g
           id="g108"
           transform="translate(327.0179,5716.9585)">
          <path
             d="m 0,0 2.411,2.742 h -9.55 v 6.05 h 20.33 V 2.789 H 5.863 V -14.606 H 0 Z"
             style="fill:#253d96;fill-opacity:1;fill-rule:nonzero;stroke:none"
             id="path110" />
        </g>
        <g
           id="g112"
           transform="translate(341.6261,5702.3525)">
          <path
             d="M 0,0 V 14.559 L 2.411,17.3 H 0 v 6.097 H 5.815 V 0 Z"
             style="fill:#253d96;fill-opacity:1;fill-rule:nonzero;stroke:none"
             id="path114" />
        </g>
        <g
           id="g116"
           transform="translate(356.0928,5716.9585)">
          <path
             d="m 0,0 2.411,2.742 h -9.55 v 6.05 h 20.33 V 2.789 H 5.862 V -14.606 H 0 Z"
             style="fill:#253d96;fill-opacity:1;fill-rule:nonzero;stroke:none"
             id="path118" />
        </g>
        <path
           d="m 376.516,5714.028 h 8.652 v 5.625 h -8.652 z m 0,-6.05 v -5.625 h -5.815 v 14.558 l 2.411,2.742 h -2.411 v 6.097 h 20.377 v -23.397 h -5.91 v 5.625 z"
           style="fill:#253d96;fill-opacity:1;fill-rule:nonzero;stroke:none"
           id="path120" />
        <g
           id="g122"
           transform="translate(407.2942,5713.2241)">
          <path
             d="M 0,0 V 12.526 H 5.91 V -10.872 H 0 L -8.699,1.465 v -12.337 h -5.816 V 3.687 l 2.364,2.742 h -2.364 v 6.097 h 5.816 z"
             style="fill:#253d96;fill-opacity:1;fill-rule:nonzero;stroke:none"
             id="path124" />
        </g>
        <g
           id="g126"
           transform="translate(435.2821,5725.75)">
          <path
             d="m 0,0 v -6.097 h -12.34 l 6.147,-5.625 6.193,-6.05 v -5.625 h -20.377 v 5.625 h 12.151 l -10.78,10.304 0.993,1.371 h -2.364 V 0 Z"
             style="fill:#253d96;fill-opacity:1;fill-rule:nonzero;stroke:none"
             id="path128" />
        </g>
      </g>
    </g>
  </g>
</svg>
