<svg id="LOGO_ORGINAL" data-name="LOGO ORGINAL" xmlns="http://www.w3.org/2000/svg" xmlns:xlink="http://www.w3.org/1999/xlink" viewBox="0 0 296.38 363.81"><defs><style>.cls-1{fill:url(#linear-gradient);}.cls-2{fill:url(#linear-gradient-2);}.cls-3{fill:url(#linear-gradient-3);}.cls-4{fill:url(#linear-gradient-4);}.cls-5{fill:url(#linear-gradient-5);}.cls-6{fill:url(#linear-gradient-6);}.cls-7{fill:#fff;}</style><linearGradient id="linear-gradient" x1="282.52" y1="101.78" x2="282.52" y2="170.19" gradientUnits="userSpaceOnUse"><stop offset="0" stop-color="#a36fad"/><stop offset="0.01" stop-color="#a073b0"/><stop offset="0.07" stop-color="#8b91c7"/><stop offset="0.14" stop-color="#7aa9d9"/><stop offset="0.22" stop-color="#6ebae6"/><stop offset="0.3" stop-color="#67c4ee"/><stop offset="0.4" stop-color="#65c7f0"/><stop offset="1" stop-color="#a36fad"/></linearGradient><linearGradient id="linear-gradient-2" x1="282.53" y1="107.11" x2="282.53" y2="165.16" xlink:href="#linear-gradient"/><linearGradient id="linear-gradient-3" x1="290.85" y1="267.02" x2="412.12" y2="267.02" gradientUnits="userSpaceOnUse"><stop offset="0" stop-color="#a36fad"/><stop offset="0.6" stop-color="#65c7f0"/><stop offset="0.7" stop-color="#67c4ee"/><stop offset="0.78" stop-color="#6ebae6"/><stop offset="0.86" stop-color="#7aa9d9"/><stop offset="0.93" stop-color="#8b91c7"/><stop offset="0.99" stop-color="#a073b0"/><stop offset="1" stop-color="#a36fad"/></linearGradient><linearGradient id="linear-gradient-4" x1="295.91" y1="265.24" x2="405.33" y2="265.24" xlink:href="#linear-gradient-3"/><linearGradient id="linear-gradient-5" x1="153" y1="267.16" x2="274.17" y2="267.16" xlink:href="#linear-gradient"/><linearGradient id="linear-gradient-6" x1="159.44" y1="265.09" x2="269.13" y2="265.09" xlink:href="#linear-gradient"/></defs><path class="cls-1" d="M421.75,137.28c-3.63-.14-7.26-.17-10.87-.48-8.91-.76-17.85-1.33-26.7-2.55-8-1.09-15.89-2.8-23.79-4.43-5.59-1.15-11.19-2.34-16.64-4q-14.34-4.42-28.48-9.52a245.79,245.79,0,0,1-31.36-14.15,2.73,2.73,0,0,0-2.85.11,271.55,271.55,0,0,1-36.65,16.13c-8.58,3-17.3,5.62-26,8.19-4.92,1.45-9.92,2.64-14.93,3.73-4.78,1-12.66,2.4-17.51,3-9.21,1.2-18.44,2.3-27.68,3.24-4.92.5-9.9.53-14.86.71-1.17,0-1.72.47-1.6,1.65.05.48.08,1,.16,1.44.71,3.91,1.38,7.83,2.15,11.73,1,5.33,2.18,10.64,3.25,16,.31,1.57,1.07,2.13,2.76,2.13q66.1-.09,132.21-.05H413.25c3.87,0,3.88,0,4.83-3.71.19-.72.36-1.46.51-2.2,1-4.52,2-9,2.8-13.58.71-3.81,1.22-7.66,1.8-11.5C423.36,138.06,423.11,137.33,421.75,137.28Zm-1.47,4.41c-.41,2.8-.84,5.7-1.36,8.51-.59,3.22-1.29,6.49-2,9.66-.27,1.29-.55,2.58-.82,3.87-.15.73-.31,1.43-.48,2.09s-.35,1.37-.5,1.78c-.45,0-1.21,0-1.9,0H243.34c-34.55,0-63.62,0-93.21,0h-.28a.37.37,0,0,0,0-.09c-.48-2.42-1-4.87-1.48-7.24-.59-2.86-1.2-5.82-1.77-8.72s-1.09-5.85-1.6-8.71l-.54-3a1,1,0,0,0,0-.16l2.72-.08c3.72-.11,7.58-.22,11.39-.61,8.4-.85,17.47-1.91,27.74-3.25,4.93-.64,12.88-2,17.72-3.06,5.95-1.3,10.75-2.49,15.11-3.78,8-2.34,17.19-5.1,26.14-8.23a271.94,271.94,0,0,0,37-16.27,1.73,1.73,0,0,1,.38-.17.61.61,0,0,1,.13.06,245.42,245.42,0,0,0,31.68,14.29c9.36,3.37,19,6.58,28.59,9.55,5.45,1.68,11.09,2.89,16.87,4.08l2.43.51c7,1.45,14.28,3,21.53,4,6.93.95,14,1.52,20.81,2.07l6,.5c2.67.22,5.34.3,7.94.38l2,.06C420.47,140.4,420.37,141.05,420.28,141.69Z" transform="translate(-135.44 -101.78)"/><path class="cls-2" d="M404.45,141.32c-6.86-.56-14-1.13-20.95-2.09-7.34-1-14.64-2.52-21.7-4l-2.43-.5c-5.84-1.21-11.54-2.43-17.1-4.15-9.65-3-19.31-6.21-28.7-9.59a244,244,0,0,1-31-13.9,271.67,271.67,0,0,1-36.52,16c-9,3.15-18.28,5.92-26.26,8.27-4.42,1.3-9.27,2.52-15.29,3.82-4.89,1.06-12.93,2.46-17.92,3.1-10.3,1.34-19.4,2.41-27.82,3.26-3.83.39-7.67.51-11.38.61l0,.3c.51,2.84,1,5.79,1.6,8.65s1.18,5.85,1.76,8.7c.37,1.75.74,3.55,1.1,5.34,29,0,57.56,0,91.4,0H413.23c.16-.61.31-1.25.44-1.91.28-1.3.55-2.59.83-3.89.67-3.15,1.36-6.4,1.95-9.59.46-2.48.85-5.05,1.22-7.56-2.36-.08-4.78-.16-7.22-.37C408.45,141.64,406.42,141.47,404.45,141.32Z" transform="translate(-135.44 -101.78)"/><path class="cls-3" d="M410.6,187.1q-55.59,0-111.18,0H292.3c-1,0-1.43.31-1.42,1.44.07,7.33.08,14.66.08,22q0,28.23,0,56.46,0,29.69,0,59.37c0,6.36-.09,12.72-.11,19.08a2.25,2.25,0,0,0,.43,1.43c.15.17.92,0,1.28-.28,3.4-2.27,6.88-4.44,10.13-6.91,6.39-4.86,12.73-9.78,18.94-14.86a253.15,253.15,0,0,0,23.08-21.7,61.36,61.36,0,0,1,12.47-68.77h0l23.09,23.08c2.32-4,4.79-7.93,7-12a277.84,277.84,0,0,0,16-33.16c3.05-7.75,5.67-15.67,8.57-23.49C412.44,187.29,412,187.1,410.6,187.1Zm-4.39,10c-1.67,4.7-3.39,9.55-5.24,14.25a270.4,270.4,0,0,1-15.86,32.86c-1.34,2.41-2.78,4.83-4.19,7.17l-1.17,2-22.57-22.56-1.78,1.77a64.18,64.18,0,0,0-13.66,70A247.33,247.33,0,0,1,320,322.89c-5.53,4.51-11.52,9.21-18.87,14.79-2.37,1.8-4.94,3.49-7.43,5.13l-.37.24c0-2.13,0-4.27,0-6.36,0-3.38.06-6.88.06-10.32,0-14.26,0-28.76,0-42.78q0-8.29,0-16.59V250.9q0-20.18,0-40.36c0-6.85,0-13.92-.06-20.92h115.5C408,192.13,407.09,194.66,406.21,197.13Z" transform="translate(-135.44 -101.78)"/><path class="cls-4" d="M317.5,192.13H295.94c0,6.17,0,12.38,0,18.41q0,20.19,0,40.39v32.65c0,14,0,28.53,0,42.79,0,3.46,0,7-.05,10.34,0,.55,0,1.09,0,1.64,1.29-.87,2.53-1.75,3.74-2.67,7.33-5.56,13.3-10.24,18.8-14.74A239.46,239.46,0,0,0,338.79,302a66.71,66.71,0,0,1,14.84-71.22l3.55-3.56,22.07,22.07c1.24-2.08,2.5-4.2,3.67-6.3a269,269,0,0,0,15.71-32.56c1.83-4.66,3.55-9.49,5.21-14.17l1.49-4.16H317.5Z" transform="translate(-135.44 -101.78)"/><path class="cls-5" d="M274.15,338.43q0-74.08,0-148.16c0-3.11.55-3.13-3.17-3.13l-108.89,0c-2.59,0-5.18,0-7.77,0-1.15,0-1.55.38-1.15,1.58.91,2.71,1.54,5.52,2.6,8.16,3.66,9.13,7.31,18.28,11.25,27.31a255.54,255.54,0,0,0,17.48,32.57,2.7,2.7,0,0,0,.44.55l22.93-22.93h0a61.35,61.35,0,0,1,12.5,68.69c4.59,4.61,9.08,9.34,13.91,13.69,6,5.41,12.15,10.65,18.52,15.61S266,342,272.69,346.71a7.17,7.17,0,0,0,1.34.5c.06-.84.13-1.41.14-2C274.17,343,274.15,340.7,274.15,338.43Zm-5.8,2.13c-4.66-3.27-9.48-6.66-14-10.2-6-4.68-12-9.74-18.38-15.48-3.67-3.31-7.22-6.93-10.66-10.42l-1.94-2a64.19,64.19,0,0,0-13.71-69.91l-1.78-1.77-22.52,22.51a243.32,243.32,0,0,1-16-30.15c-3.74-8.6-7.3-17.47-10.74-26l-.48-1.2c-.6-1.49-1.06-3.06-1.54-4.71-.15-.52-.3-1.05-.46-1.57h6l108.89,0h.67c0,.19,0,.4,0,.62,0,37.87,0,76.36,0,113.59v34.57c0,1,0,1.93,0,2.9v1.56Z" transform="translate(-135.44 -101.78)"/><path class="cls-6" d="M269.11,192.16l-107,0h-2.63c.3,1,.61,2,1,2.85l.48,1.2c3.43,8.56,7,17.41,10.71,26a231.54,231.54,0,0,0,14.22,27.12l22-22,3.55,3.56a66.72,66.72,0,0,1,14.89,71.09l.78.8c3.41,3.47,6.94,7.05,10.55,10.31,6.3,5.7,12.27,10.73,18.24,15.37,4.29,3.33,8.84,6.54,13.27,9.66v-34.2C269.12,267.24,269.12,229.41,269.11,192.16Z" transform="translate(-135.44 -101.78)"/><path class="cls-7" d="M211.46,465.28,206.84,449h-.14q.33,4.15.33,6.46v9.81h-5.41V442.69h8.13l4.71,16h.12l4.62-16h8.14v22.59h-5.6v-9.91c0-.51,0-1.08,0-1.71s.08-2.17.21-4.62h-.14l-4.56,16.24Z" transform="translate(-135.44 -101.78)"/><path class="cls-7" d="M246.07,465.28,245,461h-7.34l-1.15,4.24h-6.7l7.37-22.68h8.14l7.46,22.68ZM243.69,456l-1-3.71c-.23-.83-.5-1.89-.83-3.2s-.54-2.25-.64-2.81c-.09.52-.28,1.39-.55,2.59s-.88,3.58-1.82,7.13Z" transform="translate(-135.44 -101.78)"/><path d="M247.6,463.29l-1.11-4.24h-10.4L235,463.29h-2.44l6.07-18.71h5.26L250,463.29ZM239.29,446c-.09.5-.26,1.34-.53,2.51s-.87,3.54-1.8,7l-.66,2.5h10l-1.64-6.23c-.21-.77-.47-1.8-.81-3.15s-.53-2.19-.61-2.68Z" transform="translate(-135.44 -101.78)"/><path class="cls-7" d="M275.53,465.28h-7.06l-4.4-7.06-4.36,7.06H252.8l7.5-11.56-7.05-11H260l4.08,7,3.92-7h7l-7.15,11.51Z" transform="translate(-135.44 -101.78)"/><polygon points="134.14 361.51 128.62 352.67 123.17 361.51 121.03 361.51 127.23 351.95 121.45 342.9 123.44 342.9 128.7 351.9 133.75 342.9 135.98 342.9 130.02 352.48 136.29 361.51 134.14 361.51"/><path class="cls-7" d="M302.68,449.87a7.57,7.57,0,0,1-2.24,5.85,9,9,0,0,1-6.34,2.06h-1.71v7.5h-6.11V442.69h7.82q4.29,0,6.43,1.87A6.67,6.67,0,0,1,302.68,449.87Zm-10.29,2.94h1.11a3.06,3.06,0,0,0,2.19-.77,2.83,2.83,0,0,0,.81-2.14c0-1.52-.85-2.28-2.54-2.28h-1.57Z" transform="translate(-135.44 -101.78)"/><path d="M288.27,463.29V444.68h5.83c2.35,0,4.07.46,5.12,1.38a4.73,4.73,0,0,1,1.47,3.81,5.62,5.62,0,0,1-1.6,4.39,7.15,7.15,0,0,1-5,1.53h-3.7v7.5Zm2.13-8.49h3.1a5,5,0,0,0,3.56-1.33,4.75,4.75,0,0,0,1.43-3.57c0-2.63-1.74-4.27-4.53-4.27H290.4Z" transform="translate(-135.44 -101.78)"/><path class="cls-7" d="M306.28,465.28V442.69h6.1v17.66h8.7v4.93Z" transform="translate(-135.44 -101.78)"/><polygon points="172.83 361.51 172.83 342.9 174.96 342.9 174.96 360.56 183.65 360.56 183.65 361.51 172.83 361.51"/><path class="cls-7" d="M343.9,442.69v13.59a9.13,9.13,0,0,1-2.51,6.87c-1.68,1.63-4.09,2.43-7.24,2.43s-5.45-.78-7.1-2.36-2.48-3.84-2.48-6.8V442.69h6.13v13.25a5.42,5.42,0,0,0,.9,3.48,3.87,3.87,0,0,0,5.35,0,5.78,5.78,0,0,0,.84-3.52V442.69Z" transform="translate(-135.44 -101.78)"/><path d="M334.15,463.6c-2.57,0-4.45-.6-5.73-1.82s-1.86-2.95-1.86-5.36V444.68h2.15v11.26a7.21,7.21,0,0,0,1.36,4.75,5.82,5.82,0,0,0,8.45,0h0a7.51,7.51,0,0,0,1.26-4.74V444.68h2.13v11.6a7.14,7.14,0,0,1-1.91,5.44C338.72,463,336.75,463.6,334.15,463.6Z" transform="translate(-135.44 -101.78)"/><path class="cls-7" d="M363.41,458.42a6.68,6.68,0,0,1-1.07,3.73,7,7,0,0,1-3.07,2.53,11.44,11.44,0,0,1-4.71.9,19.22,19.22,0,0,1-3.79-.31,13.74,13.74,0,0,1-3.18-1.11v-5.43a18.13,18.13,0,0,0,3.63,1.39,13.35,13.35,0,0,0,3.46.51,3.29,3.29,0,0,0,2-.48,1.42,1.42,0,0,0,.64-1.21,1.33,1.33,0,0,0-.26-.81,3.09,3.09,0,0,0-.81-.7c-.38-.24-1.38-.72-3-1.45a14.72,14.72,0,0,1-3.32-2,6,6,0,0,1-1.63-2.16,7.13,7.13,0,0,1-.54-2.89,5.78,5.78,0,0,1,2.28-4.87,10,10,0,0,1,6.24-1.75,17.37,17.37,0,0,1,7.15,1.63l-1.87,4.71a13.49,13.49,0,0,0-5.47-1.45,2.92,2.92,0,0,0-1.73.41,1.28,1.28,0,0,0-.54,1,1.5,1.5,0,0,0,.69,1.19,25.69,25.69,0,0,0,3.73,1.91,10.3,10.3,0,0,1,4,2.82A6.13,6.13,0,0,1,363.41,458.42Z" transform="translate(-135.44 -101.78)"/><path d="M354.56,463.6a17.55,17.55,0,0,1-3.39-.28,10.84,10.84,0,0,1-1.59-.47v-1.14c.37.12.75.23,1.13.33a15.39,15.39,0,0,0,4,.57,5.18,5.18,0,0,0,3.18-.86,3.42,3.42,0,0,0,1.44-2.81,3.34,3.34,0,0,0-.64-2,4.8,4.8,0,0,0-1.36-1.21,28.35,28.35,0,0,0-3.25-1.59,12.29,12.29,0,0,1-2.85-1.65,4,4,0,0,1-1.1-1.44,5.35,5.35,0,0,1-.37-2.09,3.82,3.82,0,0,1,1.5-3.29,8.13,8.13,0,0,1,5-1.34,14.6,14.6,0,0,1,4.56.77l-.39,1a12.92,12.92,0,0,0-4.36-.84,4.65,4.65,0,0,0-2.94.83,3.24,3.24,0,0,0-1.32,2.61,3.47,3.47,0,0,0,1.47,2.77,24,24,0,0,0,4.11,2.14h0a8.2,8.2,0,0,1,3.28,2.2,4.16,4.16,0,0,1,.74,2.6,4.66,4.66,0,0,1-.74,2.64,5,5,0,0,1-2.23,1.81A9.51,9.51,0,0,1,354.56,463.6Z" transform="translate(-135.44 -101.78)"/><path d="M223.72,463.29v-7.92c0-.57,0-1.11,0-1.65v0c0-.57.07-2,.2-4.56l.11-2.09h-3.74l-4.56,16.24H213L208.34,447h-3.79l.17,2.14c.21,2.71.32,4.83.32,6.31v7.82h-1.43V444.68h4.65l4.71,16h3.11l4.62-16h4.66v18.61Z" transform="translate(-135.44 -101.78)"/><path class="cls-7" d="M174.64,426.26H146V423l6.44-1.34c1.26-.23,1.65-.71,1.65-1.8V376.29h-4.71c-4.17,0-5.82.63-7.39,4.88l-2.27,5.5h-4.32l.39-13.75h48.94l.47,13.75h-4.32l-2.28-5.5c-1.65-4.25-3.22-4.88-7.38-4.88h-4.64V419.9c0,1.09.4,1.57,1.65,1.8l6.37,1.26Z" transform="translate(-135.44 -101.78)"/><path class="cls-7" d="M190.91,423l5.81-1.26c1.18-.23,1.57-.71,1.57-1.8V379.2c0-1-.39-1.49-1.57-1.73l-5.81-1.25v-3.3H218v3.3l-5.73,1.25c-1.26.24-1.49.71-1.49,1.73v40.7c0,1.09.23,1.57,1.49,1.8L218,423v3.3h-27.1Z" transform="translate(-135.44 -101.78)"/><path class="cls-7" d="M263,426.26H234.36V423l6.44-1.34c1.26-.23,1.65-.71,1.65-1.8V376.29h-4.71c-4.17,0-5.82.63-7.39,4.88l-2.27,5.5h-4.32l.39-13.75h48.94l.47,13.75h-4.32l-2.28-5.5c-1.65-4.25-3.22-4.88-7.38-4.88h-4.64V419.9c0,1.09.39,1.57,1.65,1.8L263,423Z" transform="translate(-135.44 -101.78)"/><path class="cls-7" d="M292.9,426.26H273.1V423l5.74-1.65a3.8,3.8,0,0,0,2.59-2.52l13.12-36,3.38-10.37h6.91L321.73,420a2.34,2.34,0,0,0,2,1.81l4.87,1.26v3.22h-27.1V423l5.66-1.18c1.18-.24,1.33-.94.94-2.2l-3-8.8H288.42l-2.59,7.62c-.47,1.34-.71,2.51,1,3l6,1.65Zm7.54-29.62-3.06-10.37h-.47L289.76,407H303.9Z" transform="translate(-135.44 -101.78)"/><path class="cls-7" d="M331.8,423l5.34-1.5a2.46,2.46,0,0,0,2-2.75V379.67c0-1.25-.39-1.88-1.88-2.28l-5.5-1.25v-3.22h19l18.46,26.16,6.13,9.58h.47V380.38a2.41,2.41,0,0,0-2.12-2.75l-5.35-1.41v-3.3H387v3.22l-5.34,1.49c-1.57.47-2,1.18-2,2.75v46.11h-6.36l-23.65-33.07-6.28-10.29H343v35.66a2.41,2.41,0,0,0,2.12,2.75l5.35,1.42v3.3H331.8Z" transform="translate(-135.44 -101.78)"/><path class="cls-7" d="M412.57,427.36c-5.89,0-10.53-1.65-13.9-4.64l-1.89,4.48h-3l.15-20.35h3.61l2,5.66c2.43,7.15,6.29,11.23,13.2,11.23,6.2,0,10-2.83,10-8,0-6.21-5.57-8.25-12.49-10.68-10-3.38-15.55-8.41-15.55-17.44,0-10.06,8.64-15.79,18.3-15.79,5,0,9,1.25,12.18,3.77l1.73-3.54h2.83l-.16,19.17h-3.38l-1.89-5.81c-2.12-6.45-4.94-10-11.07-10s-9.43,3.3-9.43,7.7c0,5.81,5.89,8,12.49,10.45,9,3.3,15.56,7.38,15.56,17.36C431.82,421.86,422.94,427.36,412.57,427.36Z" transform="translate(-135.44 -101.78)"/></svg>